<?xml version="1.0"?><svg version="1.2" baseProfile="tiny-ps" viewBox="0 0 300 300" xmlns="http://www.w3.org/2000/svg" xmlns:xlink="http://www.w3.org/1999/xlink"><title>puntoia</title><g><g fill="#fff2f3" transform="matrix(.1 0 0 -.1 0 300)"><path d="M0 1500V0h3000v3000H0V1500z"/></g><g fill="#ffd3e3" transform="matrix(.1 0 0 -.1 0 300)"><path d="M0 1500V0h3000v3000H0V1500zm2568 1173c20-16 47-45 60-63l22-33v-85l-12-5c-7-2-23 3-35 11l-23 14v48l-29 32-29 33-56-1-56-2-17-13-17-14 7 11 7 11-20 18-20 18 17 20c10 11 27 23 38 28l20 9 53-3 52-4 38-30zm-1098-432 25-6 3-69 3-69 30-90c16-49 34-94 39-100 6-7 29-37 53-67 62-77 121-127 202-168 65-33 275-109 320-116 11-2 24-4 29-5l9-1-5-82-6-83-26-78-26-79-35-54c-61-94-157-184-245-228l-15-7 19 15 19 15-38-6-37-6-7 10c-9 14-87 43-116 43-14 0-43 7-65 16l-40 16 6 9 5 9-18 1c-36 1-63 9-103 30l-42 22-46 2-46 1-4 12-4 12h-40l6 15 5 15-27 1c-15 1-31 1-35 0l-8-1 5 9 6 9-43 8c-23 4-51 8-62 9h-20l-3 78-3 77h-19v23c0 12-5 29-11 37l-11 15 5-22 5-22-15 6-15 6 5 23 4 23-8-5-9-5v32l-9-6-10-6-13 23c-7 13-12 27-13 31 0 4-7 12-15 17s-11 10-6 10h8l-12 15c-7 8-21 15-32 15h-19l3 18 3 17-12-3-13-2v35l-9-14-8-13-8 12c-4 6-4 14-1 17s-2 13-12 22c-9 9-18 26-20 39l-3 22h21l-12 23c-7 12-17 25-21 28s-9 16-10 27l-1 22-11 1c-5 0-1 4 10 9l20 9h-12l-13 1v31l9-5 9-6 7 40c4 21 4 44 1 49l-6 9 14 15 14 14-8 13-9 14 7 11c3 5 7 19 7 30s4 30 8 42 10 31 12 42l4 21h-10c-5 0-9-5-9-12v-11l-6 6-7 7 13 15 12 15h-11c-6 0-28-7-48-15-41-17-56-19-29-4 52 31 199 66 341 83 53 6 339 4 365-3zm-730-95c0-3-15-14-32-26l-33-22 28 26c27 25 37 31 37 22zm-66-499-2-442 10-17 9-18-11-20-11-20h21l-1-17-1-18-6 15-7 15-5-360-5-360-3 827c-2 701 0 858 12 858v-443zm1109 377c18-9 52-33 77-53 25-21 69-52 98-70l53-34-9-9-9-9-44 17c-59 23-123 68-170 118-54 57-53 69 4 40zm32-1094c-3-5-11-10-16-10h-10l6 10c3 6 11 10 16 10h10l-6-10zm-582-97c-7-2-21-2-30 0l-18 5h60l-12-5zm-43 996c-25-5-55-11-68-14l-22-5 2-288 3-287 100-3 100-4 70 13c39 6 93 22 122 34l52 23 44 41 45 41 21 51 22 50v58l1 59-22 51-22 51-39 34c-50 46-104 73-181 91l-63 15-60-1c-33-1-80-5-105-10zm-385-18-5-10 8-5 9-5v14c0 17-3 19-12 6z"/></g><g fill="#ffdb54" transform="matrix(.1 0 0 -.1 0 300)"><path d="M0 1500V0h3000v3000H0V1500zm2561 1181 46-29 23-38 24-38v-91l-12-22-12-22-30 11c-39 13-42 19-29 56l10 30-15 31c-20 38-44 51-93 51h-39l-15-12c-9-7-23-25-32-40l-17-28-25 22c-30 26-30 29-8 75l16 35 31 19 31 19h101l45-29zm-1033-438 22-5v-86l20-63c11-35 29-80 40-99 10-19 23-44 29-56 5-12 34-48 65-81l55-60 63-34c35-19 86-42 113-51 62-22 183-48 209-45l19 2 9-30 10-30 1-95 1-95-17-65c-10-36-31-93-48-127l-31-62-52-60c-63-75-137-131-238-182l-77-39-73-20c-40-10-113-24-163-31l-90-12-111 7c-61 3-125 9-143 12l-31 7V170H660v1911l16 25c47 71 226 126 464 144l105 8 130-4c72-3 140-8 153-11zm229-195c15-7 54-34 86-60 31-26 86-64 122-85 35-21 67-43 69-50l5-11-14-6-14-5-83 41-83 42-51 51c-46 46-82 95-70 95 3 0 18-6 33-12zm-604-230-43-9v-569l26-6 26-7 103 7 103 6 56 15c67 18 122 44 165 81l32 27 26 51 27 51v75l1 75-22 41c-43 80-114 133-218 160l-50 14-95-1c-52-1-114-5-137-11z"/></g><g fill="#ff9410" transform="matrix(.1 0 0 -.1 0 300)"><path d="M0 1500V0h3000v3000H0V1500zm2313 1350c183-27 342-126 439-274l38-60 20-64 20-64v-167l-24-67-24-67-38-54c-21-30-61-76-90-102l-53-47-65-32c-35-18-93-39-128-48l-63-17h-210l-70 18c-79 20-144 50-226 106-74 50-124 108-165 193l-33 69-17 75-17 74 7 65 7 64 23 63c56 147 143 233 298 296l74 29 65 9c88 13 152 13 232 2zm-780-606 17-5v-33c0-49 26-140 61-208l31-62 62-62 62-61 94-46c99-47 146-61 242-72l58-7 12-42 11-41 1-95v-95l-13-55c-7-30-29-87-47-126l-35-71-52-62-52-62-60-44c-121-90-261-143-440-166l-90-12-111 7c-61 3-125 9-143 12l-31 7V170H660v1911l16 25c47 71 226 126 464 144l105 8 135-4c74-3 143-7 153-10zm527 579c-50-8-146-42-192-68l-47-26-56-57-56-57-32-65-32-65v-204l13-12 12-13 1 25v24l18-55c10-30 29-78 44-106l26-52 77-70 77-70 71-35c84-42 167-65 268-73l75-7 69 13c38 6 83 13 100 15 43 4 100 36 162 91l54 47 34 72 34 72 11 59 11 59-6 73-6 72-21 41c-22 44-27 45-34 9-6-30-15-38-16-14l-1 19-14-32c-13-30-34-45-34-25 0 4-4 13-9 20l-8 14-28-26-28-26-36-10c-20-5-49-10-64-10h-28l-22-15-22-14-32 4c-66 8-126 56-137 111l-7 30 19 25 19 24 2 60 2 59 8 6c4 3 11 18 15 33 4 16 18 40 31 53l24 24h70l6 10 6 9-67 21-66 20-117-1c-64-1-127-4-141-6zm-907-1005-43-9v-569l26-6 26-7 103 7 103 6 58 16 59 15 55 33 55 34 32 46 32 46 11 56 12 55-7 42c-19 112-107 198-240 233l-50 14-95-1c-52-1-114-5-137-11z"/></g><g fill="#ff4c35" transform="matrix(.1 0 0 -.1 0 300)"><path d="M0 1500V0h3000v3000H0V1500zm2384 1344c33-9 95-33 138-55l79-40 73-72 72-72 32-61c17-33 38-87 47-119l15-59v-132l-16-55c-9-30-28-76-42-104l-25-50-66-68-66-69-67-34c-37-18-99-43-140-54l-73-20h-224l-72 15-72 15-68 36-68 36-68 67-68 68-37 75-37 75-16 64c-8 35-15 87-16 114v50l-9-20-9-20v21c-1 12 8 50 19 85l19 64 32 50c17 27 47 69 66 92l35 42 66 45 67 46 74 25c40 15 99 30 130 35l56 9 90-5 90-5 59-15zm-851-600 17-5v-33c0-49 26-140 61-208l31-62 62-61 61-61 70-36c84-43 178-73 262-83l63-7 12-41 11-42 1-95v-95l-13-55c-7-30-29-87-47-126l-35-71-52-62-52-62-60-44c-121-90-261-143-440-166l-90-12-111 7c-61 3-125 9-143 12l-31 7V170H660v1911l16 25c47 71 226 126 464 144l105 8 135-4c74-3 143-7 153-10zm432 532c-22-7-63-24-90-39l-51-25-42-42-41-42-27-53-26-54-5-78-5-78 11-57 12-56 15-12 14-12v34c0 19 3 38 8 42 8 9 9 13 11 64l2 37 15-53c8-30 23-73 34-95 11-23 18-33 14-22-3 11-10 45-16 75l-10 55 6 42c7 53 49 156 82 205l26 37 50 32c55 36 56 45 3 30l-37-10 15 22c8 12 30 30 51 40 20 9 36 19 36 22 0 7-9 5-55-9zm785-625c-7-17-18-36-26-42l-14-11-13 10-13 11-55-4-55-4-57-26c-32-14-64-25-73-25-8 0-35-9-58-20l-44-19-30-47-31-46 6-14 5-14-48-1-49-1 45-10 45-9 65 5c36 3 76 9 89 12l24 7-7-11-7-12h15c27 0 111 41 163 81l52 39 29 42c29 44 66 127 59 135-2 2-10-10-17-26zm-1597-333-43-9v-569l26-6 26-7 103 7 103 6 58 16 59 15 55 33 55 34 32 46 32 46 11 56 12 55-7 42c-19 112-107 198-240 233l-50 14-95-1c-52-1-114-5-137-11z"/></g><g fill="#ff2e68" transform="matrix(.1 0 0 -.1 0 300)"><path d="M0 1500V0h1507v79l-9-5-8-5 5-10 6-9h-10c-15 0-14 23 2 39l12 12-16-6-17-6 2 33c2 18-1 41-6 51l-10 19 8 16c11 26 10 56-1 64l-10 8h26l-11 19-10 20 9 5c10 6 9 20-3 48-4 9-5 21-2 27l6 10-9 5-9 6 4 41c2 23 8 47 14 54l10 12-8 7c-4 4-7 17-7 29l-1 22 26 13 25 13-25-5-26-5 1 54v55h26l-6-10-6-10h21v40h10c6 0 10 5 10 11 0 5-4 8-8 5-4-2-14 0-22 6l-15 10 18-6 17-5v29h29l-6-17-6-16 20 19 20 19-13 11-14 11 7 6 6 7h-29c-16 0-40 3-54 5l-25 5 20-9 20-10h-270l20 9 20 9-59-6-59-6 8 12 7 13-17-4-17-3-3-110c-1-60-3-212-4-338l-1-228-225 1-225 1v1921l20 29 21 28 63 31c35 16 71 30 80 30s16 3 16 8c0 4 17 8 38 10l37 2 3 10 3 9 28-5 29-6 6 11 7 10 32-5 32-6-15 12-15 11 100-5 100-4-45 7-45 8 120 3c66 2 107 5 90 7-16 2-47 11-67 20l-37 16-7 44c-3 24-9 42-12 39-2-3-13-1-24 5l-19 10 6 10 6 9h-22l5 9 6 9-15 12-15 13 17 13c10 8 14 14 8 13-5-1-15-1-21 0l-12 1-5 26-5 25 25 30 25 29h-42v39l14-5 14-5 6 10 6 10-20 6c-11 3-20 12-21 18 0 7-2 22-3 35l-3 23 16 9 16 9-16 1h-16v30h19c22 0 23 7 3 26-8 9-15 20-15 26v10l16-6 17-6 13 11 13 11-10 24-9 25 9-5 9-6 6 16 6 15-9-6-10-5-6 10-6 10h22l-6 10-6 10h10c6 0 15 9 21 20l11 20H0V1500zM1438 475c-3-3-9 2-12 12l-7 18 12-12c7-7 10-15 7-18zm-272 2220 6-15 9 6c14 8 10 24-6 24h-14l5-15zm237-442c9-2 23-2 30 0l12 5h-60l18-5zm-205-430c7-3 16-2 19 1 4 3-2 6-13 5l-19-1 13-5zm180 0c7-3 16-2 19 1 4 3-2 6-13 5l-19-1 13-5zm-188-14c-30-4-62-6-70-3l-15 5 10-10 10-10-5-173c-3-95-4-217-2-270l3-98 37-1 37-2-35-7-35-7 85-1h85l-25 9-25 9 70-4 70-4-20 9-20 8 30 1c17 1 39 5 50 10l20 9h-12l-13 1-6 25-6 25-17 1h-16l15 7c8 4 16 15 16 24l2 16-18-3-18-4-6 16-6 16 11 13 11 14-6 15c-3 8-12 15-20 15h-15l14 28 15 27-10 3c-6 2-10 8-10 14v10l14-5 15-6-22 37c-11 20-24 39-27 42-4 3-9 13-13 23l-6 17h19l-12 19-12 20-11-5c-5-3-2 1 7 8l16 12-16 12-17 13 13 12c6 7 12 17 12 22v9l-15-6-16-6-18 12-18 11 5 19c2 10 3 17 1 17-2-1-29-5-59-10zm160-255c0-3-7-1-15 6s-15 17-15 22v9l15-15c8-8 15-18 15-22zm-4 101-16-17 7-11 7-11 4 14c3 8 10 18 16 22s8 10 4 13c-3 3-13-1-22-10zm327-110v-40l4 23c2 12 2 30 0 40l-5 17 1-40zm-84-202-14-18 18 14c9 7 17 15 17 17 0 8-8 3-21-13zm-122-50-5-8h46l-5 8c-2 4-10 7-18 7s-16-3-18-7zm562-200-14-18 18 14c16 13 21 21 13 21-2 0-10-8-17-17zm-252-194c7-7 15-10 18-7s-2 9-12 12l-18 7 12-12zm-101-40 5-9h-12c-7 0-10-2-7-5s16-2 28 3l24 9-22 5-22 6 6-9zm-131-29c11-5 27-9 35-9h15l-20 9c-11 5-27 9-35 9h-15l20-9zm73 3c7-3 16-2 19 1 4 3-2 6-13 5l-19-1 13-5zm-97-799 1-19 5 13c3 7 2 16-1 19-3 4-6-2-5-13z"/></g></g></svg>